 <svg version="1.0" xmlns="http://www.w3.org/2000/svg" width="700.000000pt" height="872.000000pt" viewBox="0 0 700.000000 872.000000" preserveAspectRatio="xMidYMid meet">

<g transform="translate(0.000000,872.000000) scale(0.100000,-0.100000)" fill="#000000" stroke="none">
<path d="M2375 7910 c-49 -4 -126 -16 -170 -28 -44 -11 -100 -23 -123 -26 -24
-4 -60 -15 -80 -25 -21 -10 -53 -22 -72 -26 -19 -4 -55 -18 -80 -31 -25 -13
-61 -31 -80 -39 -128 -57 -330 -204 -459 -335 -58 -59 -95 -104 -172 -209 -37
-50 -109 -168 -109 -179 0 -5 -9 -21 -21 -35 -11 -15 -27 -48 -36 -74 -9 -27
-22 -57 -29 -68 -7 -11 -20 -49 -29 -85 -9 -35 -23 -76 -30 -90 -14 -26 -38
-188 -55 -360 -5 -52 -14 -327 -20 -610 -11 -487 -16 -601 -40 -850 -6 -58
-17 -199 -24 -315 -8 -115 -24 -256 -36 -313 l-20 -103 37 -44 c21 -25 49 -47
64 -50 16 -4 38 -14 51 -24 13 -10 47 -26 75 -35 29 -10 55 -21 58 -26 3 -5
29 -16 58 -25 28 -10 66 -25 82 -35 17 -10 46 -21 65 -25 19 -4 50 -16 68 -26
18 -10 54 -24 80 -30 26 -6 57 -18 69 -25 13 -8 51 -21 85 -30 76 -18 157 -51
180 -72 25 -22 12 -34 -96 -87 -50 -25 -98 -49 -106 -54 -8 -5 -112 -57 -230
-116 -118 -58 -222 -110 -230 -114 -8 -5 -104 -53 -214 -106 -285 -140 -326
-172 -402 -310 l-39 -70 -3 -340 c-2 -187 -1 -354 3 -372 3 -17 30 -61 60 -98
l55 -67 0 -642 0 -642 33 -32 c28 -27 41 -32 80 -32 41 0 49 3 56 23 5 13 17
32 26 41 16 16 18 66 19 630 1 589 2 615 20 635 18 20 29 21 167 21 159 0 190
-7 208 -47 8 -17 11 -204 11 -620 0 -424 3 -607 12 -635 13 -43 30 -51 98 -46
38 3 47 8 65 38 20 35 20 46 20 855 0 451 -3 832 -7 847 -6 18 -22 33 -52 48
l-45 21 -40 -25 c-43 -28 -47 -36 -55 -130 -8 -99 -11 -100 -238 -104 -221 -4
-252 0 -274 33 -22 34 -23 494 -1 572 24 82 104 164 189 192 20 7 42 18 48 26
6 8 28 19 48 26 20 7 53 23 72 35 19 13 42 24 51 24 9 0 32 11 52 24 19 13 46
27 58 31 13 4 40 18 60 31 48 33 102 41 132 21 14 -9 33 -40 46 -76 12 -33 26
-63 31 -66 5 -3 19 -25 30 -48 20 -41 46 -81 92 -142 29 -38 215 -222 259
-256 19 -14 45 -32 59 -39 14 -7 34 -20 45 -30 11 -10 31 -21 45 -25 14 -4 36
-15 50 -25 14 -9 43 -23 65 -30 22 -7 56 -21 75 -31 19 -10 67 -25 105 -33 39
-9 95 -23 125 -31 39 -11 103 -15 224 -15 160 0 178 2 310 35 78 19 159 44
181 55 21 11 46 20 54 20 8 0 35 12 60 28 25 15 58 34 72 42 73 42 99 61 181
129 49 40 101 89 116 107 34 42 76 62 97 44 8 -7 15 -18 15 -25 0 -27 95 -196
153 -272 15 -19 27 -45 27 -57 0 -11 11 -40 24 -63 46 -79 49 -104 37 -242 -7
-69 -23 -187 -36 -261 -13 -74 -27 -173 -31 -220 -3 -47 -15 -128 -25 -180
-11 -52 -24 -147 -30 -210 -6 -63 -19 -155 -29 -203 -11 -48 -24 -145 -30
-215 -17 -196 2 -238 104 -230 33 2 43 9 59 35 27 48 56 179 68 316 6 67 19
165 30 217 11 52 24 142 29 200 5 58 18 150 29 205 11 55 25 153 30 218 18
185 48 296 82 297 3 0 44 -37 90 -82 46 -44 99 -87 118 -95 18 -8 45 -23 60
-33 15 -10 76 -28 140 -40 107 -20 119 -20 185 -6 39 8 89 17 111 21 21 4 51
15 65 25 14 9 43 27 66 38 22 11 74 55 115 96 40 42 79 76 86 76 33 0 66 -125
82 -315 6 -60 19 -157 31 -215 11 -58 25 -156 30 -219 6 -63 17 -144 26 -180
8 -36 22 -129 29 -206 16 -155 38 -260 67 -317 17 -36 21 -38 64 -38 60 0 78
11 98 61 15 37 15 53 1 186 -8 79 -22 174 -30 209 -8 36 -20 117 -25 181 -6
64 -19 159 -30 212 -11 53 -24 146 -30 207 -6 61 -19 154 -29 205 -20 96 -45
317 -43 378 0 18 17 66 36 105 20 40 36 82 36 93 0 11 12 36 27 56 49 62 126
195 143 247 7 19 22 62 35 95 13 33 26 92 30 131 8 79 29 123 72 151 64 40
185 150 245 221 100 121 200 274 243 372 9 19 21 44 27 55 33 56 41 82 40 131
0 43 -6 61 -27 87 -14 17 -44 56 -65 86 -48 67 -164 194 -267 292 -42 41 -86
83 -97 95 -23 23 -203 175 -282 237 -46 36 -53 39 -102 35 -52 -5 -54 -6 -172
-123 l-120 -118 -44 5 c-24 3 -57 15 -73 26 -16 11 -55 28 -88 37 -33 10 -89
25 -125 36 -84 23 -363 26 -455 4 -83 -19 -87 -14 -96 129 -4 63 -15 181 -23
263 -22 207 -26 317 -36 898 -7 392 -12 524 -24 570 -8 33 -20 98 -26 144 -6
47 -20 101 -30 121 -10 20 -21 54 -25 75 -4 22 -17 58 -30 80 -12 22 -26 51
-30 65 -13 44 -92 178 -178 303 -93 136 -282 313 -452 424 -66 43 -283 153
-302 153 -10 0 -42 11 -70 25 -29 13 -90 31 -135 39 -46 9 -110 22 -144 30
-77 17 -302 26 -419 16z m312 -220 c78 -6 161 -18 185 -26 24 -9 72 -24 108
-34 135 -37 242 -91 441 -224 57 -38 268 -249 305 -305 77 -116 174 -285 174
-304 0 -7 10 -32 21 -57 33 -72 86 -297 93 -395 10 -146 9 -907 -1 -940 -9
-28 -10 -29 -20 -10 -6 11 -18 70 -27 132 -23 148 -70 246 -164 345 -60 62
-170 148 -189 148 -5 0 -33 13 -63 29 -30 16 -71 32 -90 36 -19 4 -46 15 -60
25 -14 10 -45 21 -70 25 -25 4 -75 17 -112 30 -36 13 -97 28 -135 34 -37 6
-90 19 -118 30 -27 10 -77 22 -110 26 -32 4 -81 15 -106 26 -26 10 -78 23
-116 30 -37 6 -80 18 -95 25 -15 8 -57 21 -94 30 -37 8 -83 24 -103 34 -21 10
-55 22 -76 26 -22 3 -58 17 -81 30 -22 13 -47 24 -55 24 -8 0 -41 14 -73 31
-42 22 -79 33 -123 37 -62 5 -63 4 -98 -33 -20 -20 -45 -54 -56 -74 -35 -64
-75 -114 -161 -202 -151 -157 -287 -242 -458 -285 -82 -21 -96 -22 -109 -10
-11 12 -14 55 -12 231 2 190 5 228 25 308 13 51 27 113 30 139 4 26 11 50 16
53 5 3 18 34 29 68 18 56 44 110 120 248 33 61 83 125 181 231 55 60 131 130
218 200 12 10 39 26 61 37 22 12 42 24 45 29 5 8 95 54 206 105 30 14 75 31
100 37 25 6 73 20 108 31 55 18 186 33 322 37 25 1 109 -3 187 -8z m-632
-1410 c31 -16 63 -30 71 -30 8 0 36 -11 62 -24 26 -13 65 -26 86 -30 22 -4 67
-18 100 -31 34 -13 88 -30 121 -39 125 -31 192 -48 265 -68 41 -11 108 -27
149 -34 41 -7 99 -22 130 -33 31 -10 79 -22 106 -26 28 -4 76 -18 107 -31 32
-13 65 -24 74 -24 21 0 167 -66 219 -99 63 -40 118 -91 148 -139 67 -106 102
-304 78 -442 -32 -184 -84 -362 -122 -420 -5 -8 -17 -31 -27 -50 -22 -44 -65
-109 -118 -180 -35 -47 -68 -81 -176 -183 -10 -9 -49 -37 -86 -62 -37 -24 -78
-53 -92 -63 -14 -11 -36 -23 -50 -27 -14 -4 -43 -18 -65 -30 -22 -13 -55 -26
-74 -30 -18 -4 -53 -16 -77 -26 -46 -21 -248 -49 -354 -49 -106 0 -306 27
-354 49 -24 10 -59 22 -77 26 -19 4 -52 17 -74 30 -22 12 -51 26 -65 30 -14 4
-39 18 -56 31 -17 13 -34 24 -38 24 -13 0 -182 135 -230 185 -134 137 -275
381 -307 530 -20 91 -49 272 -49 301 0 38 -18 93 -37 116 -8 9 -38 20 -66 23
-42 6 -58 15 -94 50 -38 39 -43 49 -43 89 0 40 5 52 41 91 36 39 47 45 97 51
31 3 78 17 104 30 26 13 53 24 60 24 17 0 160 73 195 99 16 11 48 35 72 53 53
39 215 199 251 248 50 67 103 120 120 120 10 0 44 -13 75 -30z m1969 -957 c21
-42 35 -175 46 -434 6 -129 14 -266 19 -304 17 -138 -18 -140 -145 -9 -87 89
-94 99 -94 136 0 23 10 57 24 81 13 23 27 59 30 79 4 20 16 57 26 81 11 25 24
88 30 143 15 151 33 254 45 254 3 0 11 -12 19 -27z m-2944 -99 c6 -14 10 -49
10 -77 0 -29 7 -77 16 -107 8 -30 24 -85 34 -122 27 -100 116 -285 181 -378
22 -30 47 -66 56 -80 9 -14 67 -75 128 -136 103 -103 142 -135 233 -191 50
-30 71 -75 72 -150 0 -75 -23 -109 -68 -99 -15 3 -49 10 -77 16 -27 5 -70 18
-95 29 -25 11 -72 28 -105 39 -33 11 -82 27 -110 37 -27 9 -74 27 -103 41 -29
13 -58 24 -66 24 -7 0 -37 13 -67 29 -30 15 -67 31 -83 35 -32 8 -93 51 -105
75 -9 17 -3 77 23 251 8 58 20 200 26 315 11 232 28 418 41 453 12 31 47 29
59 -4z m2735 -816 c71 -78 70 -74 50 -105 -9 -16 -31 -42 -49 -59 -39 -40
-117 -147 -143 -199 -12 -22 -30 -58 -42 -80 -11 -21 -21 -44 -21 -51 0 -6
-11 -36 -24 -65 -27 -60 -56 -255 -56 -375 0 -141 -36 -137 -169 21 -16 19
-54 77 -120 179 -17 27 -31 55 -31 61 0 6 -11 26 -25 45 -34 46 -33 96 3 139
148 181 243 279 397 412 163 141 170 143 230 77z m1704 30 c92 -55 362 -313
482 -460 84 -103 93 -129 64 -178 -8 -14 -22 -41 -32 -60 -10 -19 -30 -53 -45
-74 -16 -21 -28 -43 -28 -48 0 -10 -9 -22 -78 -111 -102 -130 -128 -151 -157
-127 -10 8 -15 31 -15 64 0 84 -38 362 -53 393 -8 15 -22 52 -32 82 -10 30
-28 70 -41 89 -13 19 -24 38 -24 42 0 14 -78 125 -120 170 -22 24 -53 60 -67
78 l-25 34 33 35 c41 43 93 92 98 93 2 0 20 -10 40 -22z m-738 -73 c55 -8 117
-24 137 -34 20 -10 48 -22 62 -26 67 -20 220 -134 291 -217 104 -120 153 -213
196 -370 28 -103 28 -104 27 -403 l-1 -300 -29 -105 c-28 -98 -31 -105 -57
-108 -20 -3 -37 6 -67 35 -22 21 -53 48 -69 61 l-30 22 -43 -29 c-24 -16 -51
-43 -60 -59 -17 -29 -17 -31 9 -78 14 -27 36 -60 48 -74 13 -14 29 -54 38 -93
14 -63 14 -74 -1 -132 -24 -92 -77 -146 -167 -174 -63 -20 -72 -20 -124 -7
-31 8 -67 19 -81 24 -40 16 -90 75 -97 114 -5 33 -2 38 24 51 31 16 106 88
130 123 7 12 24 59 38 105 l24 84 -28 90 c-22 69 -37 100 -67 131 -63 66 -106
92 -180 110 -58 13 -80 14 -144 4 -81 -13 -99 -20 -145 -57 -74 -58 -95 -86
-123 -165 -31 -90 -32 -144 -2 -230 18 -53 35 -80 80 -125 31 -32 69 -67 85
-79 26 -19 27 -23 17 -53 -11 -31 -58 -83 -91 -101 -9 -4 -45 -16 -80 -25 -61
-15 -65 -15 -128 6 -91 30 -138 76 -164 159 -13 44 -18 78 -14 105 11 70 35
131 60 155 14 13 25 28 25 34 0 5 9 20 21 32 l20 21 -23 41 c-13 22 -40 52
-61 67 l-38 25 -30 -22 c-17 -13 -48 -40 -69 -60 -46 -44 -86 -50 -99 -15 -5
12 -21 67 -36 122 -26 100 -27 101 -23 400 4 331 10 375 80 525 73 157 206
309 328 376 25 14 56 31 70 39 148 84 345 112 561 80z m-2590 -432 c73 -27 77
-27 334 -27 222 -1 267 2 305 16 80 31 81 30 95 -77 4 -27 16 -62 26 -77 11
-15 25 -42 31 -60 6 -18 16 -40 23 -48 7 -8 25 -37 39 -65 34 -63 95 -157 151
-230 55 -72 168 -185 232 -232 66 -48 79 -77 47 -104 -8 -7 -24 -29 -34 -49
-38 -74 -198 -227 -310 -297 -61 -37 -197 -103 -214 -103 -9 0 -44 -11 -77
-25 -47 -20 -86 -27 -187 -34 -188 -12 -336 1 -452 39 -97 32 -215 86 -260
119 -14 10 -44 30 -66 45 -23 15 -59 42 -80 61 -22 19 -41 35 -44 35 -15 0
-172 208 -196 260 -9 19 -25 47 -35 61 -10 14 -23 46 -29 71 -16 62 0 95 56
117 23 9 48 22 56 28 8 7 34 19 57 28 23 8 54 24 68 35 14 11 31 20 37 20 36
0 177 135 192 183 4 12 15 34 26 49 14 20 22 58 29 145 6 65 13 124 15 131 6
21 86 14 165 -15z m2498 -1054 c49 -35 76 -88 67 -133 -4 -17 -23 -48 -43 -68
-34 -35 -41 -38 -93 -38 -64 0 -68 2 -109 54 -55 69 -34 144 54 197 43 27 76
24 124 -12z m-26 -701 c18 -12 37 -26 42 -31 6 -4 25 -17 43 -28 87 -51 -45
-122 -185 -99 -87 15 -134 73 -79 98 13 6 45 27 71 46 54 42 66 44 108 14z"></path>
<path d="M1852 5673 c-41 -36 -55 -157 -28 -233 20 -56 85 -76 145 -45 33 17
39 28 47 100 9 76 -3 143 -31 171 -30 30 -102 33 -133 7z"></path>
<path d="M3081 5676 c-14 -8 -28 -22 -32 -32 -9 -23 -11 -181 -3 -212 13 -46
106 -68 152 -36 72 50 78 210 10 274 -26 24 -90 27 -127 6z"></path>
<path d="M2110 4942 c-43 -21 -58 -65 -42 -121 9 -29 24 -46 64 -72 29 -18 58
-35 63 -38 6 -2 41 -17 80 -34 63 -27 83 -30 206 -35 150 -5 256 8 305 39 17
10 38 19 47 19 8 0 38 16 66 35 28 19 55 35 61 35 27 0 41 122 18 152 -7 8
-27 21 -45 28 -27 10 -40 9 -80 -4 -26 -9 -63 -27 -83 -40 -22 -15 -75 -33
-141 -46 l-106 -23 -99 22 c-59 13 -113 32 -134 46 -35 24 -112 55 -134 55 -6
-1 -27 -9 -46 -18z"></path>
<path d="M4057 3454 c-37 -42 -37 -43 -37 -132 0 -89 1 -91 34 -126 27 -30 41
-36 73 -36 34 0 45 6 76 42 36 41 37 44 37 125 l0 83 -41 42 c-57 59 -92 60
-142 2z"></path>
<path d="M5090 3493 c-8 -3 -32 -22 -52 -41 l-38 -36 0 -91 c1 -89 1 -90 35
-127 29 -31 42 -38 73 -38 31 0 45 7 75 38 l37 38 0 90 0 90 -37 36 c-40 37
-68 50 -93 41z"></path>
<path d="M4177 992 l-37 -38 0 -148 0 -147 33 -39 c27 -34 38 -40 72 -40 34 0
47 6 78 38 l37 38 0 150 0 150 -38 37 c-53 51 -94 51 -145 -1z"></path>
<path d="M4915 993 l-35 -38 0 -151 0 -150 35 -41 c33 -39 37 -41 77 -36 33 5
51 15 75 42 l32 36 1 144 0 144 -36 43 c-31 39 -40 44 -75 44 -33 0 -46 -6
-74 -37z"></path>
</g>
</svg>