<?xml version="1.0" standalone="no"?>
<!DOCTYPE svg PUBLIC "-//W3C//DTD SVG 20010904//EN"
 "http://www.w3.org/TR/2001/REC-SVG-20010904/DTD/svg10.dtd">
<svg version="1.0" xmlns="http://www.w3.org/2000/svg"
 width="1000.000000pt" height="822.000000pt" viewBox="0 0 1000.000000 822.000000"
 preserveAspectRatio="xMidYMid meet">
<g transform="translate(0.000000,822.000000) scale(0.100000,-0.100000)"
fill="#000000" stroke="none">
<path d="M9465 8193 c-33 -15 -157 -78 -276 -140 -139 -73 -237 -118 -273
-125 -54 -12 -61 -11 -159 22 -158 54 -193 51 -457 -39 -263 -90 -292 -103
-443 -194 -110 -66 -124 -79 -183 -157 -87 -114 -172 -285 -234 -466 -80 -234
-83 -251 -81 -408 l2 -138 -61 -59 c-33 -33 -60 -67 -60 -77 0 -30 -49 -123
-102 -194 -28 -38 -68 -96 -89 -128 -21 -33 -102 -122 -180 -199 l-141 -140
-127 -6 c-69 -4 -170 -13 -223 -21 -54 -8 -144 -14 -201 -14 -135 0 -244 -14
-402 -52 l-130 -32 -425 0 c-362 -1 -438 2 -515 16 -54 10 -189 21 -337 28
-162 7 -273 16 -325 28 -66 14 -131 17 -413 17 -232 0 -366 -4 -437 -14 -129
-18 -286 -5 -354 29 -55 28 -306 202 -419 291 -55 43 -129 88 -210 126 -125
60 -304 172 -392 245 -130 108 -549 288 -918 395 l-165 47 -250 1 c-266 0
-303 -5 -398 -52 -68 -34 -87 -56 -87 -101 0 -116 67 -182 300 -295 115 -56
223 -135 240 -178 15 -34 89 -94 165 -132 86 -42 300 -126 443 -173 175 -58
306 -120 457 -219 167 -108 328 -207 405 -246 44 -23 95 -64 160 -128 127
-126 140 -145 140 -200 -1 -66 -15 -97 -132 -302 -58 -101 -111 -202 -118
-224 -7 -22 -29 -56 -50 -75 -33 -31 -39 -44 -45 -95 -4 -32 -5 -129 -2 -214
5 -131 10 -175 36 -271 38 -142 41 -176 45 -525 3 -245 7 -299 29 -430 48
-278 46 -317 -23 -525 -45 -133 -74 -184 -205 -353 -62 -81 -117 -157 -120
-170 -4 -12 -30 -76 -57 -142 l-51 -119 5 -121 c4 -95 11 -136 31 -195 25 -71
27 -95 42 -420 8 -190 18 -358 21 -375 59 -319 68 -347 146 -422 77 -73 79
-74 203 -108 115 -31 209 -31 305 2 47 15 56 23 64 51 6 23 20 39 45 52 43 22
56 42 66 100 4 25 18 63 32 84 31 48 28 96 -11 176 -28 59 -90 115 -162 149
-23 11 -60 41 -84 68 -149 168 -171 458 -57 742 22 54 194 328 207 330 3 1 20
-61 39 -137 52 -209 46 -199 160 -260 l98 -52 143 0 143 0 37 33 c20 17 50 39
67 48 18 10 38 33 49 58 10 23 28 48 41 56 45 30 17 122 -55 187 -52 47 -147
96 -204 104 -91 13 -112 52 -112 210 -1 98 0 102 41 185 23 46 91 159 152 251
60 92 130 204 155 250 32 59 78 119 159 206 90 98 132 154 203 270 204 339
241 384 279 342 36 -40 109 -54 316 -59 167 -5 200 -9 216 -23 10 -10 38 -24
61 -32 24 -9 53 -22 65 -31 12 -8 28 -15 37 -15 8 0 32 -9 53 -20 20 -11 47
-20 60 -20 12 0 39 -9 60 -20 20 -11 54 -20 75 -20 21 0 55 -9 76 -20 21 -10
64 -24 95 -30 31 -7 112 -27 181 -45 69 -19 143 -37 165 -40 22 -3 74 -15 115
-25 41 -11 127 -30 190 -44 245 -52 397 -90 455 -111 33 -13 101 -30 150 -39
50 -9 149 -30 221 -46 111 -25 153 -30 268 -30 l136 0 37 -57 c84 -132 120
-244 184 -571 17 -87 43 -213 59 -282 26 -112 75 -383 116 -635 8 -49 23 -130
34 -180 11 -49 28 -139 39 -200 11 -60 27 -130 36 -155 14 -40 15 -69 4 -268
l-12 -222 29 -31 c38 -41 130 -111 173 -133 70 -36 240 -40 261 -5 7 10 20 9
68 -5 45 -14 82 -17 150 -14 99 4 122 15 122 57 0 15 8 31 20 39 31 19 26 85
-14 188 -59 151 -76 185 -169 323 -49 74 -98 152 -108 175 -17 37 -27 146 -14
146 3 0 47 -21 97 -46 89 -45 95 -46 163 -42 131 9 171 51 163 173 -4 52 -12
85 -31 121 -15 27 -31 68 -37 91 -15 59 -64 99 -139 114 -37 7 -68 20 -80 33
-26 28 -43 114 -76 391 -13 116 -31 235 -40 265 -49 174 -58 327 -31 527 12
89 19 112 61 190 64 118 137 231 213 330 35 46 103 147 151 226 81 133 198
298 221 312 6 3 10 17 10 31 0 31 11 52 58 113 48 63 110 194 122 260 12 65 6
105 -28 186 -22 54 -24 69 -19 155 3 66 12 115 30 160 13 36 29 89 36 119 11
50 34 111 119 306 19 44 42 123 52 175 10 52 28 131 39 175 15 56 20 94 16
126 -4 29 -3 49 4 54 15 8 14 51 -1 74 -9 15 -9 25 0 46 7 14 12 36 12 47 0
12 5 36 12 54 9 26 9 41 -2 74 -12 36 -12 48 3 93 9 29 23 78 32 110 25 92 61
158 117 215 77 79 259 197 480 312 230 120 290 167 357 284 41 72 43 80 39
140 -5 76 -41 140 -92 161 -17 7 -38 25 -46 39 -19 36 -44 32 -70 -10 l-23
-36 -41 41 c-23 23 -47 41 -54 41 -7 0 16 56 52 129 72 142 99 219 117 330 20
126 1 214 -65 315 -24 37 -47 82 -50 100 -4 19 -17 45 -31 60 -22 24 -31 26
-97 26 -57 0 -86 -6 -133 -27z"/>
</g>
</svg>
