 <svg version="1.0" xmlns="http://www.w3.org/2000/svg" width="700.000000pt" height="747.000000pt" viewBox="0 0 700.000000 747.000000" preserveAspectRatio="xMidYMid meet">

<g transform="translate(0.000000,747.000000) scale(0.100000,-0.100000)" fill="#000000" stroke="none">
<path d="M5325 6684 c-27 -13 -56 -24 -62 -24 -7 0 -27 -9 -45 -20 -18 -11
-39 -20 -47 -20 -8 0 -32 -9 -55 -19 -23 -11 -68 -31 -101 -46 -33 -15 -82
-37 -110 -50 -68 -31 -576 -283 -595 -295 -8 -6 -26 -15 -40 -20 -14 -6 -47
-24 -75 -42 -27 -17 -84 -49 -125 -71 -41 -22 -80 -44 -87 -49 -7 -5 -27 -18
-45 -27 -122 -66 -192 -113 -214 -144 -25 -38 -31 -72 -13 -82 5 -4 14 -17 19
-30 18 -48 103 -40 200 20 30 18 120 70 200 115 80 44 152 85 160 91 8 5 33
19 55 30 22 11 63 33 90 48 160 87 576 291 594 291 7 0 24 9 38 20 14 11 32
20 40 20 8 0 43 14 78 31 38 18 75 29 92 27 l28 -3 5 -1920 c3 -1056 2 -1930
-2 -1941 -9 -28 -62 -60 -113 -69 -22 -4 -47 -13 -55 -20 -8 -7 -35 -18 -59
-25 -24 -6 -60 -20 -80 -31 -20 -10 -41 -19 -48 -19 -6 0 -33 -11 -59 -25 -26
-14 -53 -25 -61 -25 -8 0 -31 -9 -51 -19 -34 -18 -87 -43 -202 -93 -59 -27
-556 -274 -643 -321 -38 -20 -74 -37 -82 -37 -7 0 -19 -7 -26 -16 -8 -9 -32
-25 -54 -35 -22 -11 -65 -33 -95 -49 -30 -17 -61 -28 -67 -25 -10 3 -13 401
-13 1940 l0 1936 -32 30 c-18 16 -55 38 -83 48 -27 11 -63 26 -80 35 -16 9
-39 16 -50 16 -11 0 -39 9 -62 20 -24 10 -68 24 -98 29 -30 6 -64 15 -74 21
-22 11 -248 47 -386 62 -99 10 -495 2 -590 -12 -33 -5 -130 -14 -215 -20 -85
-6 -202 -19 -260 -30 -58 -10 -134 -21 -170 -25 -36 -3 -90 -13 -120 -20 -31
-8 -89 -19 -130 -25 -41 -6 -103 -19 -138 -30 -35 -11 -76 -20 -89 -20 -45 0
-115 -42 -130 -77 -11 -27 -13 -414 -13 -2250 0 -1536 3 -2230 11 -2256 20
-73 80 -79 274 -27 39 10 96 21 129 25 32 4 79 13 105 21 25 8 91 19 145 25
55 5 127 16 160 24 34 8 133 19 221 25 88 6 189 15 225 21 36 5 178 12 315 15
227 6 261 4 367 -15 64 -11 128 -21 142 -21 14 0 60 -11 103 -23 43 -13 96
-29 118 -34 81 -22 180 -62 192 -79 17 -24 18 -205 1 -222 -9 -9 -295 -12
-1227 -12 l-1216 0 -64 22 c-91 33 -159 102 -189 194 l-22 69 0 1992 0 1992
-31 36 c-43 48 -86 49 -134 0 l-35 -35 2 -2032 3 -2033 32 -72 c42 -94 58
-118 118 -178 60 -60 84 -76 178 -118 l72 -32 2589 -3 c1608 -1 2607 1 2635 7
116 24 200 68 276 145 61 61 76 85 118 179 l32 72 3 2025 2 2026 -32 42 c-27
36 -38 42 -68 42 -27 0 -44 -8 -66 -31 l-29 -30 -5 -2017 -5 -2017 -21 -50
c-32 -75 -108 -145 -185 -173 l-64 -22 -1216 0 c-932 0 -1218 3 -1227 12 -8 8
-12 47 -12 109 0 92 1 99 25 117 14 11 49 25 78 32 28 7 76 20 105 31 29 10
64 19 77 19 14 0 51 9 82 20 32 10 99 24 148 30 50 6 131 18 180 27 164 28
614 8 990 -43 61 -9 144 -20 185 -25 41 -6 111 -19 155 -29 44 -11 108 -24
142 -29 34 -5 70 -14 80 -19 10 -5 53 -17 95 -26 102 -20 147 -8 165 44 16 48
18 4461 2 4508 -15 44 -67 71 -163 85 -116 16 -167 15 -199 -6 -23 -15 -27
-24 -27 -66 0 -45 3 -52 38 -79 24 -19 55 -32 87 -37 28 -4 56 -12 63 -17 9
-8 12 -439 12 -2094 0 -1880 -2 -2084 -16 -2098 -9 -9 -25 -14 -37 -11 -12 2
-51 10 -87 16 -35 6 -72 15 -81 19 -9 5 -56 14 -105 20 -49 6 -114 17 -145 25
-31 8 -112 19 -180 25 -68 6 -173 18 -234 27 -141 21 -717 24 -810 5 -33 -7
-94 -17 -135 -23 -77 -11 -211 -42 -360 -85 -47 -13 -91 -24 -98 -24 -7 0 -30
-9 -52 -20 -49 -25 -88 -25 -142 -1 -148 67 -450 141 -663 163 -130 13 -596 2
-723 -17 -53 -7 -161 -19 -239 -25 -78 -5 -168 -17 -200 -25 -32 -8 -101 -19
-153 -25 -52 -6 -117 -17 -145 -25 -91 -25 -204 -38 -221 -25 -12 11 -14 292
-14 2101 l0 2089 23 13 c36 22 308 79 487 102 52 7 136 20 185 28 50 8 142 18
205 22 63 3 189 13 280 20 186 17 383 19 480 5 36 -5 112 -15 170 -23 58 -8
132 -22 165 -32 186 -54 285 -88 304 -106 l21 -20 0 -1992 0 -1993 33 -32 c25
-24 42 -32 69 -32 20 0 40 5 44 11 3 6 25 19 48 30 22 11 64 33 91 49 28 16
66 38 85 48 19 10 58 31 85 47 28 15 88 48 135 72 47 25 126 67 175 94 50 27
101 53 115 59 14 6 95 45 180 87 144 70 203 98 305 143 22 10 65 30 95 44 30
14 60 26 65 26 6 0 28 9 50 19 60 29 151 66 235 96 41 15 93 35 115 45 22 9
56 21 75 25 47 10 76 30 100 70 20 32 20 44 20 2113 l0 2080 -27 41 c-25 38
-29 41 -72 40 -27 0 -67 -11 -96 -25z"></path>
<path d="M4835 5581 c-33 -10 -74 -25 -92 -34 -18 -9 -37 -17 -43 -17 -6 0
-37 -11 -68 -26 -73 -32 -126 -56 -182 -81 -25 -12 -76 -35 -115 -52 -38 -18
-78 -36 -87 -41 -37 -21 -57 -30 -181 -90 -116 -56 -130 -66 -144 -98 -13 -32
-13 -42 -1 -82 l14 -45 57 -3 c42 -2 67 2 95 17 38 20 274 134 394 190 37 17
72 31 79 31 7 0 20 6 28 14 16 14 122 60 176 76 17 5 48 19 70 30 21 11 48 20
58 20 11 0 41 14 68 32 46 30 49 34 49 75 0 47 -21 76 -66 93 -31 12 -35 12
-109 -9z"></path>
<path d="M4895 5000 c-3 -5 -38 -19 -78 -31 -40 -11 -76 -25 -82 -29 -5 -4
-21 -11 -35 -15 -14 -3 -50 -18 -80 -32 -30 -13 -73 -33 -95 -43 -22 -10 -65
-29 -95 -43 -30 -14 -67 -29 -82 -32 -15 -4 -32 -13 -39 -21 -6 -8 -16 -14
-21 -14 -10 0 -225 -101 -258 -121 -8 -5 -33 -18 -56 -28 -35 -16 -43 -26 -54
-65 -11 -40 -10 -49 7 -83 19 -36 23 -38 72 -41 40 -2 57 2 78 17 14 12 30 21
36 21 5 0 73 31 151 69 127 62 203 97 321 150 22 10 60 28 85 39 44 21 76 33
175 68 130 45 165 75 165 137 0 41 -3 45 -49 75 -54 35 -57 36 -66 22z"></path>
<path d="M2330 4895 c-8 -2 -103 -9 -210 -15 -107 -7 -226 -19 -265 -27 -38
-8 -110 -21 -159 -29 -49 -8 -102 -22 -117 -30 -15 -7 -34 -14 -42 -14 -7 0
-25 -18 -40 -40 l-26 -40 30 -45 c45 -67 78 -79 135 -51 16 8 74 21 129 30 55
8 138 23 185 32 128 25 736 25 830 0 114 -31 125 -31 164 -1 39 30 52 70 38
119 -13 48 -101 74 -302 92 -194 17 -329 24 -350 19z"></path>
<path d="M4830 4370 c-19 -11 -42 -19 -51 -20 -9 0 -43 -12 -75 -26 -33 -14
-86 -37 -119 -51 -71 -31 -155 -68 -210 -94 -22 -9 -129 -62 -239 -115 -182
-90 -200 -101 -213 -133 -18 -43 -4 -102 30 -126 28 -19 91 -20 107 0 7 8 17
15 23 15 6 0 81 34 167 76 171 83 225 109 315 149 33 14 77 35 97 46 20 10 43
19 50 19 7 0 36 11 63 25 28 13 56 25 63 25 27 0 141 61 156 82 44 63 -7 148
-88 148 -22 -1 -57 -9 -76 -20z"></path>
<path d="M2180 4287 c-3 -3 -82 -13 -175 -22 -94 -8 -206 -24 -250 -35 -44
-10 -100 -21 -124 -25 -59 -8 -93 -27 -131 -75 l-32 -40 32 -40 c51 -65 57
-65 330 -10 96 20 255 35 473 47 125 6 364 -9 510 -33 80 -13 90 -13 124 3 41
20 57 57 47 110 -10 52 -57 73 -214 95 -129 18 -579 37 -590 25z"></path>
<path d="M4820 3761 c-19 -10 -50 -22 -69 -26 -19 -4 -48 -16 -65 -26 -17 -10
-37 -19 -45 -19 -8 0 -39 -12 -70 -26 -31 -15 -74 -35 -96 -45 -104 -47 -171
-77 -185 -83 -8 -3 -22 -10 -30 -15 -26 -17 -245 -121 -253 -121 -5 0 -25 -14
-47 -31 -64 -52 -63 -121 3 -171 l34 -27 45 23 c25 13 54 26 64 29 11 3 30 12
44 20 33 20 214 105 400 189 25 12 66 31 91 44 26 13 53 24 60 24 8 0 28 7 44
16 17 9 53 24 80 34 111 40 126 48 155 75 41 39 41 86 1 126 -25 24 -37 29
-78 29 -26 -1 -64 -9 -83 -19z"></path>
<path d="M2155 3680 c-54 -5 -140 -16 -189 -25 -49 -8 -106 -15 -126 -15 -20
0 -70 -9 -111 -19 -41 -11 -98 -23 -127 -27 -49 -6 -57 -11 -93 -56 l-39 -50
25 -41 c18 -31 33 -44 57 -49 38 -8 134 4 251 31 45 11 134 24 197 30 63 6
151 16 195 22 109 15 357 5 535 -21 145 -21 219 -20 238 3 15 19 24 72 16 101
-10 42 -57 68 -148 82 -44 7 -108 17 -141 23 -84 15 -420 22 -540 11z"></path>
<path d="M4870 3170 c-43 -7 -185 -62 -315 -120 -22 -10 -67 -30 -100 -45 -94
-42 -182 -83 -222 -104 -10 -5 -72 -35 -138 -67 -172 -82 -204 -119 -171 -198
30 -71 96 -63 304 39 86 42 164 81 174 85 9 5 79 36 155 70 76 33 152 67 168
75 62 29 187 75 204 75 10 0 27 11 39 25 12 14 26 25 32 25 5 0 10 19 10 43 0
72 -57 111 -140 97z"></path>
<path d="M2100 3069 c-63 -4 -130 -12 -148 -18 -19 -5 -79 -15 -135 -21 -56
-6 -118 -18 -139 -25 -20 -8 -59 -17 -88 -21 -46 -6 -55 -12 -86 -52 -37 -49
-40 -57 -23 -68 6 -3 17 -22 25 -40 14 -34 15 -34 82 -34 37 0 97 9 135 19 37
11 104 23 150 27 45 3 111 13 147 21 86 19 486 29 600 14 47 -5 126 -18 177
-27 125 -22 163 -13 181 41 19 57 2 111 -41 129 -129 54 -489 78 -837 55z"></path>
<path d="M2075 2460 c-66 -4 -166 -17 -222 -29 -55 -11 -114 -21 -130 -22 -15
0 -67 -12 -116 -27 -81 -25 -89 -30 -112 -68 l-24 -40 31 -47 c30 -46 31 -47
83 -47 29 0 71 7 94 15 24 8 81 19 129 25 48 6 121 18 162 27 62 15 129 18
395 18 304 0 325 -1 428 -24 126 -29 150 -25 180 32 22 43 17 95 -11 120 -34
30 -172 59 -317 68 -163 9 -400 9 -570 -1z"></path>
</g>
</svg>