 <svg version="1.0" xmlns="http://www.w3.org/2000/svg" width="700.000000pt" height="780.000000pt" viewBox="0 0 700.000000 780.000000" preserveAspectRatio="xMidYMid meet">
<g transform="translate(0.000000,780.000000) scale(0.100000,-0.100000)" fill="#000000" stroke="none">
<path d="M3635 7248 c-26 -15 -793 -788 -1922 -1937 -175 -178 -397 -404 -493
-501 -96 -97 -298 -301 -447 -453 l-273 -276 0 -45 c0 -38 5 -50 41 -87 l41
-43 307 -4 c168 -2 314 -8 323 -13 17 -9 18 -92 20 -1437 3 -1568 -1 -1470 63
-1502 26 -13 308 -15 2383 -18 2568 -2 2442 -5 2472 54 13 25 15 211 18 1460
2 1119 5 1434 15 1442 7 6 131 12 323 14 l311 3 41 43 c36 38 42 50 42 88 l0
44 -297 301 c-942 955 -903 914 -903 938 0 12 22 49 48 84 53 67 87 129 124
222 20 53 23 76 23 210 0 134 -2 156 -24 210 -51 131 -86 187 -161 264 -123
125 -227 180 -392 205 -99 16 -113 16 -210 0 -127 -20 -219 -59 -316 -131 -55
-42 -78 -54 -96 -49 -13 3 -106 89 -207 192 -525 531 -706 712 -726 722 -28
15 -102 15 -128 0z m498 -715 c973 -983 1621 -1643 1625 -1654 2 -5 -2 -16 -8
-24 -10 -13 -55 -15 -266 -15 l-254 0 -39 -26 c-54 -35 -69 -106 -34 -164 31
-54 36 -54 463 -57 217 -2 404 -5 416 -8 12 -3 99 -84 195 -181 96 -97 182
-184 192 -193 21 -19 22 -47 1 -55 -20 -8 -5428 -8 -5448 0 -9 3 -16 14 -16
23 0 9 210 229 468 488 257 260 516 523 576 585 60 62 355 362 655 666 300
304 652 661 782 793 163 165 243 239 258 239 15 0 145 -125 434 -417z m1184
-272 c95 -23 141 -49 213 -122 39 -41 64 -79 89 -135 32 -76 33 -80 28 -189
-4 -97 -8 -117 -34 -167 -36 -71 -87 -128 -113 -128 -11 0 -47 29 -84 68 -35
37 -166 169 -290 295 -124 125 -226 235 -226 244 0 18 48 73 64 73 5 0 19 9
30 19 22 20 158 59 213 60 17 1 67 -7 110 -18z m593 -2376 c7 -8 10 -433 10
-1341 0 -1281 0 -1329 -18 -1347 -18 -18 -58 -18 -1063 -17 -938 0 -1045 2
-1061 16 -16 15 -17 67 -20 783 -3 659 -5 770 -18 792 -8 15 -25 44 -37 65
-53 94 -143 157 -250 173 -107 16 -1078 14 -1164 -3 -122 -23 -203 -94 -280
-246 -10 -19 -14 -195 -16 -790 -3 -582 -7 -768 -16 -777 -8 -8 -79 -12 -235
-14 -211 -2 -224 -1 -243 18 -20 19 -20 34 -19 1108 0 985 2 1090 16 1106 15
16 47 18 393 21 339 3 379 5 409 21 36 20 52 51 52 102 0 56 -15 81 -62 101
-39 16 -81 18 -408 22 -329 3 -367 5 -383 21 -24 24 -30 155 -8 182 16 19 62
19 2196 22 1199 1 2188 0 2197 -2 10 -2 22 -9 28 -16z m-2468 -1133 c39 -17
48 -26 57 -59 17 -59 15 -1474 -2 -1497 -14 -20 -9 -19 -765 -17 l-462 2 -16
24 c-13 20 -15 109 -12 752 2 568 6 733 16 750 14 26 55 49 109 63 22 5 242 8
533 6 475 -3 498 -4 542 -24z"></path>
<path d="M4793 4800 c-38 -34 -43 -44 -43 -82 0 -35 6 -50 36 -80 33 -35 39
-38 93 -38 51 0 60 3 89 33 28 29 32 39 32 89 0 56 -1 58 -44 88 -65 44 -109
41 -163 -10z"></path>
<path d="M2540 3656 c-38 -14 -47 -34 -49 -106 -1 -67 16 -92 72 -106 123 -31
222 75 155 167 -42 57 -103 72 -178 45z"></path>
<path d="M4409 3007 c-73 -17 -129 -64 -173 -147 l-34 -65 -1 -328 -1 -328 34
-67 c40 -79 60 -99 141 -141 l60 -30 360 0 360 0 60 30 c79 41 127 95 148 167
14 48 17 108 18 362 2 369 -4 400 -84 480 -27 27 -66 55 -86 62 -53 17 -727
21 -802 5z m708 -261 c23 -27 23 -29 23 -281 0 -281 -4 -301 -54 -310 -17 -4
-160 -5 -318 -3 -219 2 -290 6 -300 16 -19 19 -24 536 -5 572 17 34 33 35 356
34 l274 -1 24 -27z"></path>
<path d="M5130 7215 l-35 -36 0 -152 c0 -185 4 -202 51 -222 77 -32 135 -17
169 42 23 42 25 56 25 165 0 123 -8 157 -48 207 -15 19 -32 25 -73 28 -51 5
-56 3 -89 -32z"></path>
<path d="M5803 7066 c-40 -20 -71 -57 -113 -134 -11 -20 -24 -44 -29 -52 -24
-40 -51 -103 -51 -120 0 -10 14 -39 31 -64 30 -46 31 -46 87 -46 71 0 88 11
136 92 21 35 49 79 62 98 54 82 48 191 -12 216 -18 8 -35 18 -39 24 -9 14 -23
11 -72 -14z"></path>
<path d="M6275 6603 c-38 -10 -201 -106 -237 -141 -34 -32 -38 -42 -38 -84 0
-44 4 -52 43 -88 48 -45 91 -52 135 -22 15 10 62 38 105 61 85 47 167 123 167
156 0 33 -58 109 -88 116 -33 8 -60 8 -87 2z"></path>
<path d="M6245 5971 c-74 -18 -97 -45 -97 -109 0 -111 26 -126 227 -126 192
-1 225 17 225 124 0 63 -28 94 -101 109 -55 12 -207 13 -254 2z"></path>
</g>
</svg>