<?xml version="1.0" standalone="no"?>
<!DOCTYPE svg PUBLIC "-//W3C//DTD SVG 20010904//EN"
 "http://www.w3.org/TR/2001/REC-SVG-20010904/DTD/svg10.dtd">
<svg version="1.0" xmlns="http://www.w3.org/2000/svg"
 width="1600.000000pt" height="1407.000000pt" viewBox="0 0 1600.000000 1407.000000"
 preserveAspectRatio="xMidYMid meet">
<g transform="translate(0.000000,1407.000000) scale(0.100000,-0.100000)"
fill="#000000">
<path d="M2940 14054 c-36 -7 -122 -24 -192 -38 -73 -14 -140 -33 -155 -43
-16 -11 -50 -28 -78 -38 -27 -9 -77 -32 -110 -50 -161 -87 -301 -168 -316
-181 -8 -8 -19 -14 -23 -14 -4 0 -34 -21 -67 -46 -33 -25 -99 -66 -147 -91
-182 -95 -339 -193 -348 -218 -4 -8 -34 -37 -68 -64 -62 -49 -150 -154 -168
-201 -5 -14 -22 -52 -38 -85 -16 -33 -32 -78 -36 -99 -4 -22 -13 -51 -20 -65
-8 -14 -14 -31 -14 -38 0 -6 -20 -35 -45 -64 -25 -29 -45 -59 -45 -67 0 -8 7
-62 16 -119 23 -158 17 -163 -237 -227 -182 -45 -250 -74 -367 -151 -154 -103
-219 -151 -276 -207 -34 -32 -65 -58 -69 -58 -5 0 -30 -18 -56 -41 -43 -36
-49 -46 -55 -92 -4 -28 -12 -57 -18 -64 -14 -18 21 -73 102 -158 37 -38 73
-81 80 -95 7 -14 19 -29 26 -33 8 -4 14 -15 14 -23 0 -8 8 -29 17 -47 11 -21
20 -80 28 -177 10 -133 14 -149 40 -188 28 -43 55 -134 59 -202 1 -19 7 -45
14 -57 7 -12 12 -30 12 -39 0 -26 85 -148 129 -186 22 -18 101 -66 176 -107
127 -68 144 -74 219 -82 110 -11 279 -37 303 -46 26 -10 173 -148 173 -162 0
-28 73 -95 158 -145 62 -37 74 -40 172 -47 58 -4 107 -7 109 -8 2 -1 -7 -10
-20 -20 -38 -29 -98 -51 -142 -51 l-40 0 27 -21 c37 -29 32 -39 -20 -39 -37 0
-50 5 -67 26 -83 100 -103 98 -71 -6 13 -44 -23 -5 -42 45 -9 24 -23 46 -32
50 -13 5 -14 -2 -9 -47 5 -40 18 -69 54 -123 51 -75 58 -83 115 -121 21 -13
38 -30 38 -38 0 -7 22 -19 52 -27 28 -8 53 -20 56 -26 6 -19 -37 -16 -45 3 -3
8 -12 13 -20 10 -23 -9 -64 18 -138 93 -75 77 -112 95 -76 39 11 -18 26 -47
34 -63 8 -17 28 -42 45 -55 125 -102 152 -120 198 -131 68 -17 84 -26 84 -52
l0 -22 -19 24 -18 23 -21 -23 -22 -23 -40 33 c-22 18 -45 29 -50 26 -6 -3 -10
-23 -10 -43 0 -32 6 -43 45 -75 39 -33 45 -43 45 -77 0 -55 15 -87 64 -140 23
-25 51 -59 62 -75 10 -17 26 -36 34 -42 26 -22 118 -63 139 -63 12 0 31 -12
44 -26 12 -15 39 -37 60 -51 30 -19 37 -28 32 -44 -5 -14 0 -28 16 -45 18 -19
32 -24 74 -24 29 0 66 5 83 11 17 6 38 9 47 7 24 -5 -14 -68 -53 -88 -37 -18
-40 -26 -12 -33 l21 -5 -21 -53 c-11 -29 -26 -57 -35 -61 -8 -5 -15 -14 -15
-19 0 -6 5 -7 12 -3 8 5 9 2 4 -12 -4 -10 -12 -41 -18 -69 -5 -27 -14 -70 -20
-95 -11 -52 -11 -316 0 -374 12 -65 30 -55 37 21 9 95 13 103 41 103 20 0 24
-4 20 -22 -3 -13 -9 -45 -15 -73 -9 -42 -22 -134 -45 -321 -6 -47 8 -62 29
-30 10 15 22 23 26 19 5 -5 11 -41 15 -81 7 -77 24 -95 46 -47 6 14 14 25 18
25 11 0 20 -39 20 -87 0 -51 19 -143 32 -160 12 -16 36 -6 43 18 12 37 22 18
28 -56 9 -100 44 -256 62 -274 16 -16 16 -16 34 49 9 34 9 34 10 -18 l1 -53
33 25 c19 15 37 26 40 26 11 0 8 -35 -5 -48 -8 -8 -8 -15 -1 -24 6 -7 20 -46
32 -86 20 -67 23 -72 45 -66 30 7 34 -5 40 -106 3 -41 7 -82 10 -90 3 -8 5
-26 5 -40 -1 -14 4 -43 10 -65 6 -22 11 -57 11 -77 0 -21 9 -62 21 -93 11 -30
19 -68 17 -84 -5 -56 75 -111 162 -111 28 0 60 -5 71 -11 19 -10 19 -10 -1
-40 -15 -21 -33 -31 -61 -35 -28 -5 -36 -10 -27 -15 22 -14 56 -10 108 12 44
19 50 19 76 6 16 -8 47 -31 69 -50 36 -31 39 -37 29 -58 -17 -36 -34 -93 -34
-112 0 -9 9 -21 20 -27 11 -6 20 -21 20 -33 0 -43 13 -68 41 -83 20 -10 29
-22 29 -39 0 -54 67 -88 120 -60 30 15 34 15 48 1 15 -15 15 -19 -2 -49 -10
-17 -32 -46 -49 -64 -43 -46 -32 -63 41 -63 40 0 64 5 72 15 10 12 14 12 32
-5 26 -24 34 -94 19 -155 -14 -57 -1 -90 32 -81 80 20 75 21 86 -20 15 -52 76
-134 100 -134 50 0 121 -148 121 -249 -1 -42 -2 -44 -15 -27 -14 18 -15 18
-26 -8 -10 -21 -7 -58 20 -212 33 -194 42 -227 65 -218 10 4 18 -14 30 -68 8
-40 23 -104 31 -143 9 -38 18 -81 20 -95 5 -37 24 -82 40 -94 9 -7 22 -68 36
-176 19 -140 23 -221 26 -532 2 -248 0 -369 -7 -373 -8 -5 -8 -11 0 -20 8 -9
8 -15 0 -20 -7 -4 -6 -13 2 -28 10 -20 26 -155 33 -289 1 -31 5 -60 8 -65 3
-5 11 -49 17 -97 l11 -87 -68 -142 c-37 -78 -84 -165 -105 -194 -21 -29 -38
-56 -38 -61 0 -5 -12 -19 -26 -33 -14 -13 -34 -38 -46 -56 -27 -45 -46 -54
-96 -42 -32 7 -52 5 -84 -7 -53 -19 -99 -24 -114 -13 -15 12 -139 -26 -179
-54 -16 -12 -57 -47 -91 -78 -34 -31 -71 -60 -82 -64 -13 -4 -24 -17 -27 -33
-10 -47 -58 -134 -122 -219 -35 -46 -63 -87 -63 -92 0 -5 10 -11 21 -14 17 -5
20 -11 17 -34 -3 -15 -8 -35 -12 -44 -5 -12 -1 -18 14 -22 13 -3 21 -13 20
-24 -6 -50 2 -55 157 -94 125 -32 173 -36 203 -17 15 10 22 9 38 -5 24 -22 32
-21 32 1 0 21 18 42 37 42 7 0 24 -12 39 -28 19 -19 25 -22 20 -9 -9 27 3 67
19 61 8 -3 18 -19 24 -35 12 -36 31 -38 31 -4 0 20 5 25 24 25 68 0 73 -38 17
-130 -26 -44 -36 -69 -30 -80 4 -8 10 -27 13 -41 3 -14 15 -38 28 -54 20 -26
24 -27 83 -22 l61 6 10 -32 c9 -32 103 -117 129 -117 8 0 26 11 41 23 l27 24
68 -29 c37 -15 88 -30 113 -32 57 -6 94 -30 115 -76 l15 -35 4 28 c4 31 16 35
32 9 8 -12 13 -14 17 -4 4 11 185 102 204 102 4 0 40 -18 79 -41 63 -35 77
-40 109 -33 20 4 59 8 86 8 37 1 61 9 92 30 l43 29 36 -28 c32 -24 51 -29 179
-43 138 -15 143 -15 181 5 40 20 48 33 110 168 15 33 42 84 60 113 19 29 52
89 75 135 23 45 52 96 65 114 l24 31 -5 235 c-7 314 -8 313 155 111 53 -66
117 -180 144 -257 3 -10 10 -15 16 -12 14 9 12 49 -6 112 -9 30 -13 57 -10 60
9 10 33 -16 45 -47 6 -17 16 -43 22 -60 18 -48 32 -36 24 20 -4 28 -3 50 2 50
4 0 30 -8 57 -19 l50 -19 17 23 c17 20 17 27 3 86 -8 35 -12 78 -9 95 4 22 -1
43 -14 65 -18 33 -45 128 -38 135 11 11 64 -65 86 -123 30 -76 51 -93 51 -39
0 30 5 37 35 52 34 16 87 78 119 141 10 21 16 57 16 108 0 83 4 87 56 54 36
-22 43 -16 19 15 -8 10 -22 42 -31 70 -9 28 -22 58 -30 66 -15 18 -29 70 -18
70 4 0 16 -7 26 -17 30 -27 156 -73 202 -73 29 0 52 7 70 21 32 25 34 43 4 33
-34 -11 -64 -7 -109 16 -49 26 -57 45 -65 168 -3 53 -12 131 -19 172 -27 148
-28 160 -12 160 8 0 20 -7 27 -14 17 -21 77 -39 106 -32 33 9 30 22 -7 30 -34
7 -94 60 -84 76 3 6 -7 22 -24 36 -17 14 -31 32 -31 40 0 8 -4 23 -10 34 -5
11 -15 29 -21 41 -13 25 -7 33 18 25 19 -6 46 -56 59 -109 3 -16 17 -39 30
-52 13 -13 24 -28 24 -33 0 -14 65 -32 119 -32 42 0 61 6 96 30 43 29 75 65
75 83 0 5 -14 -3 -31 -17 -42 -36 -68 -33 -111 12 -58 60 -79 114 -88 222 -4
52 -13 108 -19 123 -11 29 -6 52 9 42 5 -3 19 8 31 25 21 28 48 40 49 23 1 -5
15 -24 31 -43 28 -32 30 -33 24 -10 -4 14 -19 51 -33 84 l-26 59 22 61 c47
134 64 339 37 451 -8 33 -15 74 -14 90 l0 30 16 -30 c10 -16 20 -55 24 -85 4
-30 16 -80 27 -110 l21 -55 0 60 c1 67 -10 143 -36 254 -15 69 -16 79 -1 135
11 41 13 63 6 67 -14 9 -1 29 18 29 22 0 17 15 -27 70 -37 47 -40 55 -34 92
20 119 124 354 162 369 33 12 34 12 23 -17 -6 -14 -10 -42 -10 -63 0 -23 -8
-48 -20 -64 -25 -32 -25 -41 0 -27 17 9 20 7 26 -14 3 -14 13 -31 23 -40 16
-14 17 -11 13 48 l-4 62 78 72 c44 40 81 72 84 72 3 0 11 -21 18 -46 15 -55
41 -119 46 -113 3 2 -2 29 -10 59 -19 74 -17 120 7 149 25 31 29 26 19 -29 -5
-25 -5 -47 -1 -50 3 -3 12 -17 18 -32 16 -36 30 -36 38 0 3 16 18 35 34 45 15
9 47 37 70 63 31 32 46 43 54 35 7 -7 7 -18 -1 -36 -17 -36 -16 -37 19 -19 31
15 32 15 56 -10 13 -14 25 -26 26 -26 1 0 20 6 42 14 32 11 45 22 65 62 23 44
28 49 55 46 20 -2 44 6 69 23 20 14 41 23 45 21 11 -7 24 5 78 76 l51 68 13
-80 c7 -44 14 -80 16 -80 2 0 20 7 40 15 41 17 57 19 48 6 -9 -16 12 -22 42
-10 35 13 59 35 133 121 44 50 60 63 64 51 6 -14 10 -13 29 5 16 15 26 19 34
11 17 -17 57 0 75 31 12 22 25 30 45 30 15 0 37 7 47 15 21 16 46 5 46 -20 0
-49 95 -18 137 46 14 22 40 44 61 52 36 14 37 14 41 -7 4 -27 20 -37 42 -26 9
5 19 6 23 3 3 -4 19 5 34 19 15 14 59 47 97 74 39 27 75 54 80 61 16 19 227
75 239 63 19 -19 52 -10 204 60 85 39 155 70 158 70 2 0 4 -6 4 -14 0 -12 -57
-57 -157 -123 -32 -22 35 5 102 40 70 37 221 178 275 257 21 30 51 68 68 83
l30 29 30 -22 c16 -12 50 -26 75 -31 39 -7 52 -5 89 15 25 14 70 27 108 31 36
3 92 16 125 27 33 12 68 21 78 20 9 0 17 3 17 7 0 5 32 29 70 55 67 44 72 46
93 31 12 -8 29 -15 38 -15 9 0 26 -16 38 -35 11 -20 28 -38 38 -42 40 -15 185
-153 261 -248 31 -38 74 -91 97 -117 22 -25 50 -60 62 -76 25 -33 120 -241
182 -397 93 -237 109 -268 161 -316 49 -45 50 -47 44 -91 -6 -44 -6 -45 25
-51 24 -5 39 -19 63 -58 26 -41 45 -57 100 -85 37 -19 73 -34 79 -34 13 0 154
-108 215 -165 52 -48 66 -61 141 -120 32 -26 70 -63 85 -82 15 -19 53 -60 86
-91 65 -62 102 -139 102 -210 0 -21 6 -47 14 -58 8 -10 30 -60 49 -109 46
-119 117 -262 171 -344 24 -36 53 -85 65 -109 12 -24 37 -67 55 -95 19 -29 48
-84 66 -122 28 -62 30 -76 25 -128 -4 -31 -11 -60 -16 -63 -5 -3 -9 -20 -9
-39 0 -19 -5 -37 -12 -41 -8 -5 -9 0 -6 14 4 12 2 22 -3 22 -5 0 -9 -9 -9 -19
0 -11 -5 -23 -10 -26 -7 -4 -7 -11 -2 -18 14 -19 7 -69 -12 -82 -11 -8 -13
-14 -6 -17 8 -2 6 -16 -7 -43 -10 -22 -20 -42 -23 -45 -3 -3 -6 -14 -8 -25 -1
-11 -5 -31 -8 -45 -6 -23 -7 -24 -14 -5 -6 17 -9 14 -19 -20 -6 -22 -11 -50
-11 -63 0 -13 -4 -21 -9 -18 -5 4 -12 -7 -16 -24 -4 -16 -10 -30 -15 -30 -4 0
-6 -9 -3 -20 4 -14 0 -20 -10 -20 -9 0 -26 -21 -39 -47 -35 -74 -86 -133 -115
-133 -13 0 -77 9 -141 21 -72 13 -144 20 -187 17 -79 -4 -66 4 -267 -154 -141
-112 -151 -123 -172 -196 -10 -35 -22 -76 -27 -91 -5 -18 -5 -36 2 -48 10 -20
20 -18 50 8 14 11 18 11 29 -2 7 -8 25 -15 40 -15 15 0 55 -14 89 -32 l62 -32
97 12 97 11 90 -44 c50 -25 94 -45 99 -45 5 0 25 -12 45 -27 52 -40 82 -40
167 1 80 40 92 43 74 22 -9 -12 -5 -16 25 -22 45 -8 147 20 171 48 21 23 39
23 100 0 150 -57 159 -57 217 -4 21 20 27 35 27 68 0 89 32 117 170 148 79 18
164 59 217 104 l32 27 -16 70 c-13 61 -14 105 -4 340 12 279 16 318 50 545 18
119 52 230 70 230 4 0 37 30 74 66 37 36 88 74 112 85 35 16 45 25 45 44 0 53
10 59 46 24 19 -18 34 -41 34 -51 0 -10 6 -18 14 -18 21 0 46 -45 46 -85 0
-19 11 -63 25 -97 14 -34 25 -69 25 -77 1 -41 42 -126 113 -233 44 -67 77
-128 77 -142 0 -14 4 -28 10 -31 22 -14 112 -164 125 -210 13 -45 42 -274 42
-335 1 -14 4 -68 8 -121 5 -60 4 -125 -4 -175 -6 -43 -12 -107 -12 -142 -1
-36 -8 -69 -15 -76 -9 -9 -10 -16 -2 -24 6 -6 7 -15 3 -22 -5 -8 -11 -6 -21 7
-9 11 -16 14 -21 8 -19 -25 -121 -66 -187 -76 -39 -5 -89 -15 -111 -21 -22 -6
-44 -12 -50 -12 -15 -1 -19 -47 -5 -56 9 -6 9 -13 -1 -29 -16 -24 -37 -27 -45
-6 -4 8 -10 15 -15 15 -13 0 -11 -74 2 -87 7 -7 7 -13 1 -17 -6 -3 -18 1 -26
10 -15 14 -16 14 -16 -6 l0 -21 -26 20 c-15 12 -33 21 -40 21 -20 0 -17 -37 4
-49 15 -8 12 -12 -18 -24 -19 -8 -57 -18 -85 -22 -65 -9 -95 -36 -94 -84 1
-56 21 -106 57 -146 l33 -36 -22 -18 c-22 -17 -22 -20 -10 -91 13 -82 16 -90
37 -90 8 0 53 -20 100 -45 46 -25 95 -45 108 -45 13 0 35 -9 49 -20 32 -25 42
-25 68 1 20 20 25 20 62 9 41 -12 111 -52 121 -69 4 -5 32 -15 63 -21 57 -12
57 -12 83 17 32 38 67 58 72 41 4 -10 14 -9 47 2 35 11 59 12 134 2 51 -6 121
-21 157 -32 42 -13 68 -16 74 -10 15 15 36 12 30 -5 -11 -27 12 -16 131 60
113 72 145 86 145 65 0 -15 53 -12 77 5 26 18 105 135 127 189 17 41 12 90 -9
82 -30 -11 -40 54 -37 234 2 96 -2 216 -7 267 -9 74 -8 106 4 170 8 43 15 97
15 120 0 35 -3 40 -19 36 -15 -4 -19 3 -24 40 -5 36 -39 118 -88 209 -5 9 -6
66 -2 127 4 74 2 124 -6 153 -13 46 -6 103 35 288 17 78 14 240 -6 308 -6 23
-5 32 3 32 7 0 4 7 -6 15 -13 9 -22 37 -30 84 -9 63 -8 76 8 109 10 20 28 66
40 101 25 77 47 97 71 63 8 -12 19 -20 22 -18 15 9 13 131 -3 159 -17 33 -8
90 24 154 31 62 91 200 91 209 0 5 8 14 19 21 22 14 26 34 45 213 20 192 -6
486 -54 612 -11 29 -20 62 -20 74 0 11 -11 44 -25 72 -14 29 -25 58 -25 65 0
7 -18 51 -41 98 -44 90 -45 103 -19 224 23 111 9 471 -21 527 -6 11 -14 40
-19 66 -4 26 -17 83 -28 127 -11 44 -23 109 -26 145 -4 36 -15 103 -26 150
-11 47 -33 145 -49 219 -18 83 -37 144 -50 162 -17 23 -21 43 -21 111 0 46 -5
112 -10 148 -5 36 -12 202 -15 370 -3 168 -8 317 -10 331 -6 28 19 115 41 139
42 49 64 286 45 490 -23 234 -58 350 -127 421 -28 28 -41 56 -64 137 -16 55
-37 116 -46 134 -31 61 -88 153 -110 178 -25 28 -114 153 -175 246 -28 43 -51
66 -78 79 -26 11 -56 40 -89 84 -28 37 -80 101 -117 142 -186 207 -189 209
-214 209 -18 0 -34 11 -52 38 -40 55 -138 164 -173 190 -16 12 -38 22 -48 22
-10 0 -50 22 -90 49 -40 26 -98 61 -128 76 -30 15 -75 45 -99 66 -28 25 -67
46 -108 59 -36 11 -77 28 -91 39 -15 10 -61 34 -102 53 -41 20 -104 49 -140
66 -102 47 -188 82 -202 82 -7 -1 4 -10 25 -21 22 -11 37 -23 34 -26 -6 -6
-189 40 -237 60 -19 8 -57 18 -83 22 -27 3 -68 15 -92 25 -49 21 -94 26 -150
17 -22 -4 -166 -14 -320 -22 -154 -9 -320 -18 -368 -22 -84 -6 -133 -1 -287
28 -36 7 -90 13 -120 14 -30 2 -136 8 -235 15 -128 9 -242 10 -395 4 -389 -16
-1063 -4 -1285 22 -141 17 -205 38 -97 31 34 -2 62 0 62 5 0 4 -16 8 -35 8
-20 0 -93 9 -163 20 -164 27 -243 37 -431 55 -85 8 -159 19 -163 23 -5 5 5 7
22 4 16 -2 30 0 30 5 0 16 -581 25 -780 13 -96 -6 -190 -9 -209 -5 -19 4 -53
9 -75 11 -109 13 -459 77 -647 119 -37 8 -79 15 -93 15 -39 0 -314 48 -334 59
-9 5 -46 19 -82 31 -35 13 -87 37 -114 54 -28 17 -66 36 -86 41 -32 10 -35 15
-45 63 -6 31 -20 63 -32 76 -13 13 -23 31 -23 39 0 9 -11 24 -25 35 -14 11
-25 24 -25 29 0 5 -12 20 -26 34 -15 13 -49 51 -77 84 -27 33 -79 79 -114 103
-34 23 -63 47 -63 52 0 5 14 17 30 27 35 20 39 33 10 33 -20 0 -20 2 5 50 33
64 51 146 36 164 -6 7 -14 37 -18 66 -10 64 -24 73 -42 25 -7 -19 -16 -35 -21
-35 -5 0 -11 26 -15 58 -4 31 -15 84 -25 117 -10 33 -27 87 -37 120 -18 60
-18 60 -55 59 -26 -1 -39 4 -43 15 -3 9 -12 24 -20 35 -13 18 -15 18 -41 -3
-19 -15 -30 -18 -39 -11 -9 7 -16 5 -26 -7 -23 -27 -91 -73 -100 -67 -5 3 -9
17 -9 32 0 55 -48 165 -79 182 -40 21 -59 12 -95 -44 -39 -61 -69 -86 -104
-86 -21 0 -23 4 -18 25 7 28 -7 38 -64 49 -36 6 -71 35 -172 142 -27 28 -48
54 -48 58 0 4 -36 41 -80 82 -83 79 -167 184 -214 269 -31 56 -91 204 -102
250 -6 30 -13 42 -99 175 -55 85 -172 210 -225 242 -84 51 -205 155 -247 212
-52 72 -247 290 -350 392 -59 58 -82 74 -130 89 -32 10 -74 26 -93 35 -19 10
-53 21 -75 24 -21 4 -55 16 -75 25 -66 34 -245 90 -316 100 -40 6 -84 15 -98
21 -36 13 -105 11 -186 -6z"/>
</g>
</svg>
