 <svg version="1.0" xmlns="http://www.w3.org/2000/svg" width="700.000000pt" height="681.000000pt" viewBox="0 0 700.000000 681.000000" preserveAspectRatio="xMidYMid meet">

<g transform="translate(0.000000,681.000000) scale(0.100000,-0.100000)" fill="#000000" stroke="none">
<path d="M1004 6116 l-39 -34 -5 -155 c-3 -109 -9 -160 -18 -169 -9 -9 -57
-14 -165 -16 l-152 -3 -32 -32 -33 -31 0 -2340 c1 -2067 3 -2346 16 -2381 8
-22 20 -55 25 -73 23 -77 121 -192 194 -229 17 -9 36 -21 44 -27 8 -6 41 -20
75 -31 60 -19 106 -19 1903 -22 l1842 -3 34 30 c44 38 48 56 50 218 2 106 5
135 17 142 8 5 69 10 135 10 144 1 193 10 223 45 l22 26 -1 2507 c-1 1379 -4
2517 -7 2529 -4 12 -24 33 -45 47 l-38 26 -2003 0 -2003 0 -39 -34z m3919
-185 c16 -12 17 -188 15 -2385 l-3 -2371 -85 -3 c-71 -2 -87 0 -97 15 -11 14
-13 374 -13 1845 0 1680 -1 1831 -16 1860 -9 18 -199 215 -421 438 l-405 405
-1359 5 c-1194 4 -1361 7 -1369 20 -16 25 -12 143 6 168 l15 22 1858 -2 c1558
-3 1861 -5 1874 -17z m-1195 -393 c9 -9 12 -103 12 -363 0 -321 1 -352 18
-366 9 -9 22 -25 28 -35 11 -18 30 -19 370 -22 232 -2 363 -7 371 -14 10 -8
13 -400 13 -1971 0 -1810 -1 -1962 -17 -1979 -15 -17 -83 -18 -1747 -18 -1876
1 -1805 -1 -1885 55 -52 35 -77 66 -109 133 l-27 57 -3 2252 c-2 2044 -1 2253
14 2267 14 14 157 16 1483 16 1128 0 1470 -3 1479 -12z m455 -366 c103 -104
187 -196 187 -205 0 -15 -19 -17 -199 -17 -172 0 -200 2 -212 17 -10 12 -15
60 -17 184 -3 174 3 209 36 209 10 0 102 -85 205 -188z"></path>
<path d="M1172 4938 c-16 -16 -16 -160 0 -176 9 -9 257 -12 1058 -11 575 0
1063 3 1084 7 l39 7 1 84 c1 68 -2 85 -16 92 -27 15 -2151 12 -2166 -3z"></path>
<path d="M1169 4532 c-5 -13 -9 -52 -9 -87 0 -112 -125 -101 1110 -95 l1075 5
5 80 c3 44 3 88 0 98 -5 17 -59 18 -1089 20 l-1083 2 -9 -23z"></path>
<path d="M1515 4053 c-50 -6 -148 -45 -190 -76 -45 -32 -115 -112 -115 -132 0
-7 -10 -25 -22 -40 -20 -26 -22 -40 -22 -139 0 -105 1 -114 32 -176 48 -96 88
-135 201 -196 50 -27 63 -29 155 -29 91 0 107 3 161 29 38 19 84 55 125 96 52
54 69 80 88 133 49 146 15 300 -93 412 -77 79 -219 132 -320 118z m118 -217
c64 -29 80 -46 107 -115 23 -59 21 -90 -10 -151 -52 -103 -170 -139 -269 -84
-141 80 -135 271 11 346 66 34 95 34 161 4z"></path>
<path d="M2295 3752 c-16 -2 -34 -7 -39 -12 -10 -10 -12 -162 -2 -178 5 -9
243 -12 941 -12 913 0 935 0 945 19 15 28 13 156 -3 169 -11 9 -1761 23 -1842
14z"></path>
<path d="M1478 2946 c-42 -6 -85 -19 -95 -28 -10 -8 -27 -18 -39 -22 -37 -11
-120 -108 -150 -176 -25 -57 -29 -77 -29 -160 0 -86 3 -101 31 -160 85 -177
269 -263 464 -216 57 14 128 53 171 96 137 135 157 352 47 511 -51 76 -152
142 -233 153 -27 4 -59 9 -70 11 -11 2 -55 -2 -97 -9z m177 -211 c42 -30 53
-41 72 -80 34 -66 36 -96 13 -158 -37 -99 -111 -139 -227 -123 -86 12 -152 93
-153 189 0 48 5 66 29 100 39 56 64 78 103 88 43 10 138 1 163 -16z"></path>
<path d="M2249 2655 c0 -3 -1 -44 -2 -92 l-1 -88 950 0 949 0 0 90 0 90 -947
3 c-522 1 -948 0 -949 -3z"></path>
<path d="M1510 1863 c-48 -5 -137 -42 -185 -76 -42 -30 -115 -112 -115 -129 0
-5 -10 -24 -22 -41 -21 -29 -23 -43 -22 -147 0 -112 1 -117 34 -175 76 -134
193 -213 330 -222 71 -5 88 -3 156 23 101 38 202 131 228 212 10 28 22 54 27
57 5 4 9 44 9 90 0 130 -40 221 -139 312 -72 66 -202 107 -301 96z m128 -217
c60 -30 75 -48 102 -116 19 -47 20 -60 10 -96 -18 -64 -45 -101 -97 -134 -63
-40 -124 -41 -192 -3 -138 77 -134 274 6 347 61 32 111 32 171 2z"></path>
<path d="M3192 1573 l-933 -3 -7 -23 c-4 -12 -5 -57 -2 -100 l5 -78 940 0
c894 0 940 1 947 18 14 38 6 197 -11 191 -3 -2 -426 -4 -939 -5z"></path>
<path d="M6021 6023 c-30 -8 -67 -23 -82 -34 -15 -10 -30 -19 -35 -19 -20 0
-101 -104 -130 -169 l-34 -73 0 -2244 0 -2244 26 -53 c25 -51 34 -69 53 -104
10 -19 74 -148 98 -198 8 -16 19 -39 25 -50 7 -11 18 -33 25 -50 8 -16 19 -37
24 -45 5 -8 18 -35 30 -60 29 -65 76 -110 113 -110 23 0 40 11 73 47 24 25 43
50 43 55 0 9 61 136 80 168 5 8 16 31 25 50 8 19 19 42 24 50 6 8 38 72 71
142 34 70 66 130 71 133 5 4 9 887 9 2255 l0 2249 -29 73 c-77 191 -276 287
-480 231z m233 -219 c20 -16 48 -52 61 -81 23 -48 25 -63 25 -197 0 -189 13
-178 -220 -174 -138 2 -173 6 -180 18 -5 8 -10 80 -10 160 0 139 1 147 28 196
28 53 72 97 107 107 11 3 50 5 86 3 56 -3 72 -8 103 -32z m56 -667 c23 -11 25
-19 28 -86 2 -45 -2 -78 -9 -87 -9 -11 -49 -14 -195 -14 -213 0 -204 -4 -204
104 0 94 5 96 200 96 105 0 163 -4 180 -13z m18 -399 c9 -9 12 -394 12 -1673
0 -1419 -2 -1664 -14 -1681 -13 -18 -28 -19 -191 -19 -163 0 -178 1 -191 19
-12 17 -14 262 -14 1681 0 1279 3 1664 12 1673 8 8 66 12 193 12 127 0 185 -4
193 -12z m-79 -3586 c7 -13 6 -26 -3 -43 -114 -214 -110 -213 -178 -84 -48 92
-58 129 -35 138 6 3 56 6 109 6 85 1 99 -1 107 -17z"></path>
</g>
</svg>