<?xml version="1.0" standalone="no"?>
<!DOCTYPE svg PUBLIC "-//W3C//DTD SVG 20010904//EN"
 "http://www.w3.org/TR/2001/REC-SVG-20010904/DTD/svg10.dtd">
<svg version="1.0" xmlns="http://www.w3.org/2000/svg"
 width="270.000000pt" height="330.000000pt" viewBox="0 0 270.000000 330.000000"
 preserveAspectRatio="xMidYMid meet">
<g transform="translate(0.000000,330.000000) scale(0.100000,-0.100000)"
fill="#000000" stroke="none">
<path d="M1417 2662 c-25 -27 -47 -87 -47 -126 0 -19 9 -55 20 -81 11 -26 20
-57 20 -69 0 -13 9 -31 21 -42 12 -10 29 -35 39 -54 17 -33 17 -48 7 -205
l-12 -170 -101 -7 c-113 -7 -174 -23 -255 -63 -92 -47 -120 -74 -155 -151 -17
-39 -39 -78 -49 -87 -21 -21 -99 -23 -148 -2 -53 22 -115 98 -123 151 -9 65 2
94 54 141 37 34 43 43 27 43 -32 0 -91 -45 -110 -86 -32 -68 2 -179 79 -260
34 -35 51 -44 101 -54 l60 -12 -3 -136 c-1 -75 -7 -164 -12 -198 -6 -33 -10
-126 -10 -207 0 -80 -5 -158 -10 -172 -6 -15 -21 -86 -35 -158 -13 -74 -33
-150 -45 -172 -40 -74 8 -123 75 -79 19 12 25 25 25 53 0 20 10 92 21 161 11
69 24 150 29 180 11 74 78 250 147 385 31 60 56 111 57 111 0 1 21 4 46 8 44
6 46 6 84 -40 31 -37 42 -61 57 -131 l19 -85 -30 -70 -30 -71 20 -56 c12 -31
41 -106 66 -167 39 -96 49 -111 76 -122 66 -25 94 35 38 82 -75 63 -103 206
-57 296 36 72 49 65 80 -47 15 -54 33 -143 41 -198 8 -55 20 -116 25 -135 6
-20 8 -68 5 -116 -7 -80 -6 -82 20 -99 32 -21 70 -14 91 19 14 21 14 30 0 87
-8 35 -15 82 -15 104 0 22 -10 65 -22 95 -17 44 -22 87 -28 215 -4 88 -12 174
-18 192 -7 22 -7 44 0 71 11 45 24 52 105 52 48 0 57 4 103 45 28 25 55 45 60
45 5 0 19 -18 30 -40 16 -31 20 -59 20 -128 0 -50 9 -135 22 -198 12 -60 21
-140 20 -179 -1 -50 3 -74 15 -87 8 -9 29 -57 47 -105 30 -84 33 -88 68 -97
72 -18 88 36 29 99 -55 58 -55 59 -61 375 -3 162 -9 303 -14 312 -4 9 0 42 10
78 13 46 15 81 11 143 -8 101 -34 180 -94 283 -85 145 -94 166 -94 228 -1 67
1 69 81 92 66 19 84 36 98 91 10 45 4 56 -44 81 -18 10 -21 18 -17 64 3 29 11
58 18 64 8 5 17 23 21 40 4 16 15 40 24 54 10 14 25 38 34 53 9 15 28 32 41
37 34 13 65 46 65 70 0 29 -21 25 -72 -14 -24 -19 -64 -40 -89 -46 -24 -6 -70
-27 -102 -46 -48 -28 -69 -34 -115 -34 -31 0 -77 -5 -101 -11 -40 -9 -45 -8
-60 13 -8 13 -34 41 -56 63 -22 22 -54 66 -70 97 -32 62 -43 68 -68 40z"/>
</g>
</svg>
